<?xml version="1.0" encoding="UTF-8" standalone="no"?>
<!-- Created with Inkscape (http://www.inkscape.org/) -->

<svg
   xmlns:dc="http://purl.org/dc/elements/1.1/"
   xmlns:cc="http://creativecommons.org/ns#"
   xmlns:rdf="http://www.w3.org/1999/02/22-rdf-syntax-ns#"
   xmlns:svg="http://www.w3.org/2000/svg"
   xmlns="http://www.w3.org/2000/svg"
   xmlns:sodipodi="http://sodipodi.sourceforge.net/DTD/sodipodi-0.dtd"
   xmlns:inkscape="http://www.inkscape.org/namespaces/inkscape"
   width="305"
   height="150"
   id="svg2"
   version="1.1"
   inkscape:version="0.48.2 r9819"
   sodipodi:docname="mustache.svg">
  <defs
     id="defs4" />
  <sodipodi:namedview
     id="base"
     pagecolor="#ffffff"
     bordercolor="#666666"
     borderopacity="1.0"
     inkscape:pageopacity="0.0"
     inkscape:pageshadow="2"
     inkscape:zoom="1.979899"
     inkscape:cx="145.08349"
     inkscape:cy="69.492373"
     inkscape:document-units="px"
     inkscape:current-layer="layer1"
     showgrid="false"
     inkscape:window-width="1073"
     inkscape:window-height="793"
     inkscape:window-x="4"
     inkscape:window-y="0"
     inkscape:window-maximized="0" />
  <metadata
     id="metadata7">
    <rdf:RDF>
      <cc:Work
         rdf:about="">
        <dc:format>image/svg+xml</dc:format>
        <dc:type
           rdf:resource="http://purl.org/dc/dcmitype/StillImage" />
        <dc:title></dc:title>
      </cc:Work>
    </rdf:RDF>
  </metadata>
  <g
     inkscape:label="Layer 1"
     inkscape:groupmode="layer"
     id="layer1"
     transform="translate(0,-902.36218)">
    <path
       style="fill:#000000"
       d="m 140.19171,1045.339 c -5.19132,-0.7846 -12.93178,-3.1819 -17.38798,-5.3853 -8.96969,-4.4352 -18.90026,-13.7036 -22.804219,-21.2836 -0.895125,-1.7381 -1.694931,-3.2618 -1.777353,-3.3862 -0.08242,-0.1244 -2.192404,0.9774 -4.688833,2.4484 -7.250264,4.2722 -11.958094,5.5865 -21.274843,5.9395 -10.00572,0.379 -16.066663,-0.8191 -23.547768,-4.6548 -5.706224,-2.9257 -12.151353,-8.7249 -14.889674,-13.3975 -2.289034,-3.906 -4.165863,-12.9489 -4.049963,-19.51355 l 0.09653,-5.46767 -3.39243,-0.70427 C 17.56012,978.08325 9.3160765,971.87885 5.4388875,964.10225 0.25839967,954.22031 2.9610616,940.28712 5.6810377,934.69067 10.327583,925.33202 22.093846,915.72191 34.887036,910.83665 c 5.685659,-2.17114 9.921489,-2.61169 11.128444,-1.15739 3.300886,1.64261 -3.041703,14.50946 2.649835,22.38574 1.22363,2.01133 2.86926,4.37275 3.656954,5.24762 2.596066,2.88338 9.219568,6.70663 14.678044,8.47253 5.055813,1.63565 6.484492,1.76905 24.321014,2.27111 10.696743,0.30109 22.134033,0.99202 26.261353,1.58645 10.50657,1.5132 21.66974,4.64615 28.75918,8.07126 l 6.15033,2.97141 6.15034,-2.983 c 13.34623,-6.47311 26.84254,-8.82422 55.35299,-9.6427 17.477,-0.50173 18.94618,-0.64096 23.98856,-2.27335 6.04618,-1.95736 12.31689,-5.72057 15.193,-9.11772 1.06003,-1.25205 2.80789,-4.21025 3.88415,-6.57378 1.9196,-4.21559 1.94788,-4.4404 1.4868,-11.81972 -0.54178,-8.67104 -0.22172,-9.48164 3.74383,-9.48164 3.15401,0 12.44934,3.66512 18.81646,7.41927 6.74136,3.97481 15.57092,12.98464 18.30604,18.67982 5.10157,7.14378 4.34645,28.7204 -5.81894,37.19965 -3.81378,3.56734 -8.52156,6.11698 -13.8642,7.50857 -2.07282,0.5399 -3.89347,1.10633 -4.04588,1.25874 -0.15241,0.1524 -0.27732,2.62543 -0.27759,5.4956 -5.2e-4,5.67781 -1.80151,14.18508 -3.93673,18.59588 -3.08189,6.3663 -13.07232,14.1143 -21.90331,16.9868 -6.06068,1.9715 -19.89121,2.4648 -25.81853,0.921 -4.65189,-1.2117 -9.64798,-3.3626 -13.80774,-5.9445 l -2.72427,-1.6909 -3.04929,4.7976 c -7.43406,11.6965 -19.11491,20.33 -32.3032,23.8758 -5.12505,2.0179 -25.19337,2.6052 -31.67315,1.4422 z m 28.83739,-2.5442 c 8.91004,-2.1944 17.9631,-6.8437 23.68977,-12.1663 3.73788,-3.4741 8.81951,-9.7912 10.95825,-13.6224 1.17383,-2.1027 2.3913,-3.982 2.70549,-4.1762 0.31418,-0.1942 2.03885,0.7013 3.83258,1.99 15.83471,11.3761 40.60576,9.6958 53.78555,-3.6484 7.0191,-7.1067 9.46949,-13.75035 9.49203,-25.73555 l 0.0115,-6.13766 1.82848,-0.36904 c 5.09469,-1.02827 9.09721,-2.60893 12.70247,-5.01642 4.944,-3.30148 6.91986,-4.9744 9.31554,-10.01515 2.21369,-4.65788 2.44198,-9.08536 2.65124,-12.64543 0.673,-11.44958 -1.5468,-16.85466 -8.45477,-24.06884 -8.1021,-8.46127 -22.03645,-16.39523 -28.79478,-16.39523 -4.06088,-0.0273 -2.5036,2.93642 -2.53034,6.71509 2.54241,10.59793 -3.82202,21.86399 -15.53361,27.49704 -7.11615,3.42273 -12.41176,4.20805 -31.02529,4.60097 -25.98553,0.54852 -41.35867,3.31991 -54.4247,9.81141 l -6.8843,3.42028 -5.08391,-2.68107 c -6.12979,-3.23263 -13.06803,-5.59587 -21.82877,-7.43512 -9.89027,-2.07637 -17.00107,-2.71933 -34.120027,-3.08513 -8.593813,-0.18362 -17.42037,-0.63945 -19.614543,-1.01295 -18.709337,-3.18469 -29.936633,-16.16102 -26.981003,-31.18421 0.436163,-2.21696 0.606251,-4.61933 0.377964,-5.33858 -1.425727,-4.49207 -18.998909,3.05958 -28.937586,12.43522 -8.84401,8.343 -11.5658076,14.37568 -11.4987324,25.48619 0.033378,5.52434 0.3480091,7.77969 1.5075827,10.80602 3.6052312,9.40913 11.3994437,15.4089 23.4768007,18.0718 l 1.828477,0.40315 0.0099,6.47011 c 0.01782,11.71219 2.579336,18.4442 9.755212,25.6378 12.751959,12.7835 36.795908,14.5938 52.647667,3.9641 2.3394,-1.5688 4.453426,-2.8523 4.697827,-2.8523 0.244405,0 1.121797,1.3944 1.949781,3.0986 3.00797,6.1913 10.9119,14.9615 17.70987,19.6507 5.86518,4.0459 14.11342,7.1333 22.63187,8.4715 5.68121,0.8925 23.05567,0.3098 28.14661,-0.944 z"
       id="path3050"
       inkscape:connector-curvature="0"
       sodipodi:nodetypes="csscssssscsccsccssssscssssssssccscssssscsccccscssscssssssccsscsssssssssscsssssssccc" />
  </g>
</svg>
